<svg width="153" height="44" viewBox="0 0 153 44" fill="none" xmlns="http://www.w3.org/2000/svg">
<rect x="0.666626" width="44" height="44" rx="22" fill="#FE5E44" fill-opacity="0.05"/>
<path d="M27.6666 12H17.6666C14.9052 12 12.6666 14.2386 12.6666 17V27C12.6666 29.7614 14.9052 32 17.6666 32H27.6666C30.428 32 32.6666 29.7614 32.6666 27V17C32.6666 14.2386 30.428 12 27.6666 12Z" stroke="#FE5E44" stroke-linecap="round" stroke-linejoin="round"/>
<path d="M26.6666 21.3698C26.7901 22.2021 26.6479 23.052 26.2604 23.7988C25.8729 24.5456 25.2598 25.1512 24.5083 25.5295C23.7567 25.9077 22.9051 26.0394 22.0744 25.9057C21.2438 25.7721 20.4764 25.3799 19.8815 24.785C19.2866 24.1901 18.8944 23.4227 18.7607 22.592C18.627 21.7614 18.7587 20.9097 19.137 20.1582C19.5152 19.4067 20.1208 18.7936 20.8676 18.4061C21.6144 18.0186 22.4644 17.8764 23.2966 17.9998C24.1456 18.1257 24.9315 18.5213 25.5383 19.1281C26.1452 19.735 26.5408 20.5209 26.6666 21.3698Z" stroke="#FE5E44" stroke-linecap="round" stroke-linejoin="round"/>
<path d="M28.1666 16.5H28.1766" stroke="#FE5E44" stroke-linecap="round" stroke-linejoin="round"/>
<rect x="54.6666" width="44" height="44" rx="22" fill="#FE5E44" fill-opacity="0.05"/>
<path d="M82.6666 12H79.6666C78.3405 12 77.0688 12.5268 76.1311 13.4645C75.1934 14.4021 74.6666 15.6739 74.6666 17V20H71.6666V24H74.6666V32H78.6666V24H81.6666L82.6666 20H78.6666V17C78.6666 16.7348 78.772 16.4804 78.9595 16.2929C79.1471 16.1054 79.4014 16 79.6666 16H82.6666V12Z" stroke="#FE5E44" stroke-linecap="round" stroke-linejoin="round"/>
<rect x="108.667" width="44" height="44" rx="22" fill="#FE5E44" fill-opacity="0.05"/>
<g clip-path="url(#clip0_270_1102)">
<path d="M141.667 12.9998C140.709 13.6753 139.649 14.1919 138.527 14.5298C137.924 13.8373 137.124 13.3465 136.234 13.1237C135.343 12.901 134.406 12.957 133.549 13.2843C132.691 13.6115 131.955 14.1942 131.44 14.9535C130.924 15.7128 130.654 16.6121 130.667 17.5298V18.5298C128.909 18.5754 127.168 18.1856 125.598 17.3952C124.027 16.6049 122.677 15.4384 121.667 13.9998C121.667 13.9998 117.667 22.9998 126.667 26.9998C124.607 28.3978 122.154 29.0987 119.667 28.9998C128.667 33.9998 139.667 28.9998 139.667 17.4998C139.666 17.2213 139.639 16.9434 139.587 16.6698C140.607 15.6633 141.327 14.3925 141.667 12.9998V12.9998Z" stroke="#FE5E44" stroke-linecap="round" stroke-linejoin="round"/>
</g>
<defs>
<clipPath id="clip0_270_1102">
<rect width="24" height="24" fill="white" transform="translate(118.667 10)"/>
</clipPath>
</defs>
</svg>
